<?xml version="1.0" encoding="UTF-8"?>
<svg width="2803px" height="752px" viewBox="0 0 2803 752" version="1.1" xmlns="http://www.w3.org/2000/svg" xmlns:xlink="http://www.w3.org/1999/xlink">
    <!-- Generator: Sketch 51.3 (57544) - http://www.bohemiancoding.com/sketch -->
    <title>Artboard 3 Copy</title>
    <desc>Created with Sketch.</desc>
    <defs>
        <path d="M94.2892193,34.2967033 C94.2892193,36.4725275 92.5068261,40.8241758 89.9322582,46.1648352 C78.2476806,71.2857143 60.0276613,105.703297 47.7489527,124.692308 C45.9665595,127.263736 44.1841663,128.648352 40.0252488,128.648352 L20.4189237,128.648352 C16.45805,128.648352 14.6756568,127.659341 13.883482,124.494505 C7.54608403,101.351648 1.60477339,63.5714286 0.0204238886,37.4615385 C-0.177619799,33.3076923 1.01064233,31.7252747 5.96173452,31.7252747 L24.3797975,31.7252747 C28.7367586,31.7252747 29.9250208,32.3186813 30.1230644,36.2747253 C30.9152392,56.8461538 33.2917634,80.978022 35.470244,94.6263736 L36.2624188,94.6263736 C44.976341,78.6043956 56.4628749,53.4835165 63.1963603,37.0659341 C64.9787535,32.7142857 66.3650593,31.7252747 70.7220204,31.7252747 L89.7342145,31.7252747 C92.9029135,31.7252747 94.2892193,32.5164835 94.2892193,34.2967033 Z M133.628397,45.967033 L118.577077,122.912088 C117.982946,126.67033 116.200553,128.648352 111.051417,128.648352 L92.8313977,128.648352 C88.4744366,128.648352 87.0881308,127.263736 87.0881308,125.285714 C87.0881308,123.703297 87.6822618,121.131868 88.4744366,117.373626 L103.921844,37.4615385 C104.714019,33.7032967 106.496412,31.7252747 111.645548,31.7252747 L129.865567,31.7252747 C134.024485,31.7252747 135.410791,32.9120879 135.410791,35.2857143 C135.410791,36.8681319 135.014703,39.043956 133.628397,45.967033 Z M196.358736,116.384615 L195.368517,121.32967 C194.180255,127.065934 192.793949,128.648352 187.842857,128.648352 L171.999362,128.648352 C156.353911,128.648352 149.026294,126.076923 145.659551,121.32967 C143.877158,118.758242 142.88694,115.593407 142.88694,111.43956 C142.88694,107.681319 143.283027,103.527473 144.471289,97.3956044 L152.591081,56.4505495 L157.344129,32.1208791 L161.106959,12.7362637 C161.70109,8.97802198 163.483483,7 168.830663,7 L186.852639,7 C192.001774,7 192.991993,8.97802198 192.397862,12.7362637 L188.635032,31.7252747 L205.072658,31.7252747 C208.043313,31.7252747 209.231575,32.1208791 209.231575,34.2967033 C209.231575,35.0879121 208.835488,37.2637363 208.043313,41.2197802 L206.26092,50.7142857 C205.270701,55.6593407 203.884396,56.4505495 200.319609,56.4505495 L183.881983,56.4505495 L176.356323,95.2197802 C175.960236,97.1978022 175.762192,98.5824176 175.762192,99.7692308 C175.762192,103.32967 178.138716,104.120879 183.881983,104.120879 L192.991993,104.120879 C196.754823,104.120879 197.745041,104.912088 197.745041,107.483516 C197.745041,108.868132 197.15091,112.032967 196.358736,116.384615 Z M258.84702,105.703297 L260.035282,105.703297 C266.174637,105.703297 275.086603,104.318681 281.027913,102.934066 C282.018132,102.736264 283.404438,102.340659 284.790743,102.340659 C286.573137,102.340659 287.563355,103.527473 287.761399,105.703297 L288.553573,114.802198 C288.751617,117.175824 288.949661,119.549451 288.949661,120.736264 C288.949661,123.307692 287.167268,124.494505 282.810306,125.879121 C275.680734,128.054945 263.005938,130.428571 251.123316,130.428571 L248.350705,130.428571 C224.783506,130.428571 211.316535,122.912088 211.316535,100.956044 C211.316535,94.2307692 212.306754,86.5164835 213.495016,80.1868132 L214.881322,73.2637363 C219.040239,52.6923077 224.98155,43.1978022 232.903297,37.6593407 C239.636783,32.9120879 250.529185,29.9450549 265.580506,29.9450549 L266.174637,29.9450549 C278.057258,29.9450549 287.761399,32.3186813 293.702709,38.0549451 C298.257714,42.4065934 300.832282,48.5384615 300.832282,57.6373626 C300.832282,63.1758242 299.64402,70.2967033 297.861627,80.1868132 L296.871408,85.5274725 C296.079234,89.8791209 294.29684,91.0659341 290.137923,91.0659341 L243.201569,91.0659341 C242.607438,93.8351648 242.409394,96.2087912 242.409394,97.989011 C242.409394,103.131868 245.776137,105.703297 258.84702,105.703297 Z M246.964399,70.4945055 L268.551161,70.4945055 C270.13551,70.4945055 270.729642,70.0989011 271.125729,68.5164835 L271.521816,66.7362637 C272.115947,63.967033 272.313991,62.3846154 272.313991,60.6043956 C272.313991,55.0659341 269.145292,52.0989011 262.213763,52.0989011 L261.817676,52.0989011 C257.658758,52.0989011 254.688103,53.0879121 252.509622,55.0659341 C249.935054,57.4395604 248.746792,60.6043956 247.55853,67.1318681 L246.964399,70.4945055 Z M343.142115,39.4395604 C350.667776,33.3076923 360.173873,29.9450549 374.433018,29.9450549 L375.819324,29.9450549 C393.445212,29.9450549 402.951309,37.2637363 402.951309,53.6813187 C402.951309,58.4285714 401.763047,67.5274725 398.000217,87.5054945 C395.029562,103.131868 391.860863,115.197802 383.14694,122.318681 C375.225193,128.846154 366.511271,130.428571 354.034518,130.428571 L353.0443,130.428571 C346.508858,130.428571 337.99298,128.648352 333.636018,126.472527 L329.497543,147.37206 C328.837397,151.196235 319.852603,156.625329 302.543159,163.659341 C297.988155,163.659341 296.007718,162.472527 296.007718,159.901099 C296.007718,158.714286 296.007718,157.725275 297.19598,151.593407 L319.77296,36.6703297 C320.565135,32.9120879 322.149485,31.7252747 326.704489,31.7252747 L336.210586,31.7252747 C340.369504,31.7252747 341.75581,32.5164835 342.151897,35.4835165 L342.746028,39.4395604 L343.142115,39.4395604 Z M344.924509,68.3186813 L340.963635,88.4945055 C339.973416,93.2417582 339.379285,96.6043956 339.379285,98.5824176 C339.379285,103.725275 342.547984,105.703297 349.479513,105.703297 L350.469732,105.703297 C362.352353,105.703297 364.134746,98.978022 367.303445,84.5384615 C369.283882,75.2417582 370.670188,66.3406593 370.670188,63.1758242 C370.670188,57.4395604 367.501489,54.8681319 360.56996,54.8681319 L359.183654,54.8681319 C350.865819,54.8681319 346.904946,57.8351648 344.924509,68.3186813 Z M461.698769,121.131868 L461.302681,121.131868 C456.94572,126.868132 448.627885,130.428571 433.972652,130.428571 L433.378521,130.428571 C415.158502,130.428571 405.652405,121.32967 405.652405,106.296703 C405.652405,97.1978022 407.830886,85.7252747 414.366327,78.8021978 C420.703725,72.0769231 431.794172,68.5164835 448.429842,68.5164835 L449.618104,68.5164835 C454.76724,68.5164835 461.698769,68.9120879 464.47138,69.3076923 C465.263555,66.3406593 465.659642,63.7692308 465.659642,62.5824176 L465.659642,62.1868132 C465.659642,57.043956 461.500725,54.6703297 451.994628,54.6703297 L451.400497,54.6703297 C446.449405,54.6703297 439.517876,55.6593407 434.566783,56.8461538 C432.586347,57.2417582 428.625473,58.2307692 427.041123,58.2307692 C425.25873,58.2307692 424.268512,57.2417582 424.070468,55.0659341 L423.08025,44.978022 C422.882206,42.4065934 422.684162,40.032967 422.684162,38.6483516 C422.684162,36.8681319 423.278293,35.8791209 425.654818,35.0879121 C433.774609,32.5164835 448.825929,29.9450549 461.302681,29.9450549 L461.896812,29.9450549 C475.165739,29.9450549 484.077705,32.3186813 490.019016,36.6703297 C494.772065,40.2307692 497.544676,45.7692308 497.544676,54.8681319 C497.544676,58.6263736 496.752501,66.7362637 493.97989,80.7802198 L485.464011,123.10989 C484.671837,127.065934 482.889443,128.648352 477.740307,128.648352 L467.442036,128.648352 C463.283118,128.648352 462.094856,127.857143 461.896812,124.692308 L461.698769,121.131868 Z M459.916376,95.2197802 L460.906594,89.6813187 C458.133982,89.2857143 453.777021,89.0879121 450.014191,89.0879121 L447.835711,89.0879121 C438.329614,89.0879121 434.170696,93.043956 434.170696,100.362637 C434.170696,105.10989 436.745264,107.879121 443.874837,107.879121 L444.865055,107.879121 C449.42006,107.879121 452.984846,106.89011 455.361371,104.912088 C457.737895,102.934066 458.728113,100.56044 459.916376,95.2197802 Z M601.248053,37.6593407 C586.790864,73.6593407 567.184539,115.593407 536.09168,164.450549 C534.111243,167.615385 532.526893,169 529.952325,169 C528.367976,169 526.387539,168.208791 524.011015,167.21978 L513.514699,163.065934 C510.147956,161.681319 509.355782,160.296703 509.355782,158.714286 C509.355782,157.131868 510.147956,155.945055 511.138175,154.56044 C516.485354,146.846154 523.21884,136.362637 526.783626,130.230769 C521.436447,128.450549 518.069704,123.901099 516.485354,115.593407 C513.118612,97.7912088 509.751869,58.8241758 508.365563,37.4615385 C508.16752,33.3076923 510.940131,31.7252747 515.495136,31.7252747 L532.130806,31.7252747 C536.487767,31.7252747 538.072116,32.5164835 538.072116,36.4725275 C538.468204,59.8131868 539.656466,82.956044 541.438859,102.538462 L542.429078,102.538462 C552.925393,81.3736264 563.619752,56.8461538 570.551281,37.0659341 C571.937587,32.9120879 574.116068,31.7252747 578.076941,31.7252747 L597.089135,31.7252747 C601.64414,31.7252747 603.030446,33.5054945 601.248053,37.6593407 Z" id="path-1"></path>
        <filter x="-3.4%" y="-11.4%" width="106.8%" height="125.3%" filterUnits="objectBoundingBox" id="filter-2">
            <feMorphology radius="1.5" operator="dilate" in="SourceAlpha" result="shadowSpreadOuter1"></feMorphology>
            <feOffset dx="0" dy="2" in="shadowSpreadOuter1" result="shadowOffsetOuter1"></feOffset>
            <feGaussianBlur stdDeviation="5" in="shadowOffsetOuter1" result="shadowBlurOuter1"></feGaussianBlur>
            <feColorMatrix values="0 0 0 0 0   0 0 0 0 0   0 0 0 0 0  0 0 0 0.534646739 0" type="matrix" in="shadowBlurOuter1"></feColorMatrix>
        </filter>
    </defs>
    <g id="Artboard-3-Copy" stroke="none" stroke-width="1" fill="none" fill-rule="evenodd">
        <rect fill="#011046" x="0" y="0" width="2803" height="752"></rect>
        <g id="Group-3" transform="translate(855.000000, 266.000000)">
            <g id="v2" transform="translate(943.000000, 58.000000)">
                <circle id="Oval" fill="#FFFFFF" fill-rule="nonzero" cx="75" cy="75" r="75"></circle>
                <path d="M58.6050099,101 L57.1936613,101 C55.8565942,101 55.2623422,100.327744 54.7423717,99.0579268 C50.9540149,89.5716463 47.3142212,78.6661585 44.045835,65.1463415 C43.897272,64.6234756 44.1201165,64.3993902 44.5658055,64.3993902 L46.4228432,64.3993902 C46.9428137,64.3993902 47.1656582,64.4740854 47.3142212,64.9969512 C50.4340444,77.695122 53.8509936,88.6753049 57.4907873,97.8628049 L58.3078839,97.8628049 C61.9476776,88.6753049 65.3646268,77.695122 68.48445,64.9969512 C68.633013,64.4740854 68.8558575,64.3993902 69.375828,64.3993902 L71.2328656,64.3993902 C71.6785547,64.3993902 71.9013992,64.6234756 71.7528362,65.1463415 C68.48445,78.6661585 64.8446563,89.5716463 61.0562995,99.0579268 C60.536329,100.327744 59.942077,101 58.6050099,101 Z M103.51437,101 L80.0414145,101 C79.075755,101 78.7786289,100.775915 78.7786289,99.7301829 L78.7786289,92.7835366 C78.7786289,85.089939 80.3385405,80.8323171 87.9895355,77.6204268 L93.3378038,75.3795732 C99.6517317,72.6905488 101.285925,69.9268293 101.285925,64.9222561 L101.285925,64.3993902 C101.285925,57.2286585 97.9432571,55.1371951 91.2579217,55.1371951 C88.063817,55.1371951 83.9040527,55.8094512 80.7842296,56.8551829 C80.115696,57.0792683 79.81857,56.929878 79.670007,56.257622 L79.372881,54.9131098 C79.224318,54.3155488 79.4471625,54.0167683 79.967133,53.867378 C83.0126747,52.8216463 87.9895355,52 91.3322032,52 C100.023139,52 105,54.8384146 105,64.1753049 L105,64.9969512 C105,71.9435976 102.103021,74.9314024 95.0462784,78.0685976 L89.7722916,80.3841463 C83.1612377,83.2972561 82.1955781,85.3887195 82.1955781,93.7545732 L82.1955781,98.0868902 L103.51437,98.0868902 C104.03434,98.0868902 104.182903,98.3109756 104.182903,98.7591463 L104.182903,100.402439 C104.182903,100.775915 104.03434,101 103.51437,101 Z" fill="#011046"></path>
            </g>
            <g id="Group">
                <g id="Group-2" transform="translate(282.000000, 51.000000)">
                    <g id="Group-3-Copy">
                        <g id="vitepay-copy">
                            <use fill="black" fill-opacity="1" filter="url(#filter-2)" xlink:href="#path-1"></use>
                            <use fill="#FFFFFF" fill-rule="evenodd" xlink:href="#path-1"></use>
                        </g>
                        <polygon id="Path-4" stroke="#FFFFFF" stroke-width="18" fill="#FFFFFF" stroke-linecap="round" stroke-linejoin="round" points="113 18 116.505834 0 136 0 133.13978 18"></polygon>
                    </g>
                </g>
                <text id="api" font-family="FSJoey-Light, FS Joey" font-size="200" font-weight="300" letter-spacing="-2.083332" fill="#FFFFFF">
                    <tspan x="0" y="178">api</tspan>
                </text>
            </g>
        </g>
    </g>
</svg>