<svg xmlns="http://www.w3.org/2000/svg" xmlns:xlink="http://www.w3.org/1999/xlink" viewBox="0 0 344.14 272.74"><defs><style>.cls-1{isolation:isolate;}.cls-14,.cls-16,.cls-2,.cls-20,.cls-4,.cls-7{opacity:0.2;}.cls-3,.cls-4{fill:#18bdf7;}.cls-12,.cls-5{fill:#4a63fe;}.cls-5{opacity:0.26;}.cls-18,.cls-6{opacity:0.8;}.cls-29,.cls-41,.cls-7,.cls-8{fill:#00a4d6;}.cls-8{opacity:0.15;}.cls-10,.cls-11,.cls-9{fill:none;stroke:#00a4d6;stroke-miterlimit:10;}.cls-9{stroke-width:2px;}.cls-11,.cls-9{opacity:0.1;}.cls-10{stroke-width:0.5px;}.cls-10,.cls-19,.cls-23,.cls-29,.cls-40,.cls-49{opacity:0.5;}.cls-11{stroke-width:3.13px;}.cls-13{fill:#425de2;}.cls-14{fill:#60f4df;}.cls-15{fill:#3b5bd1;}.cls-16,.cls-17,.cls-18,.cls-22,.cls-23,.cls-24{fill:#fff;}.cls-17{opacity:0.39;}.cls-19,.cls-20,.cls-25{fill:#9cd7ff;}.cls-21,.cls-24,.cls-27,.cls-39{opacity:0.3;}.cls-26{mix-blend-mode:overlay;fill:url(#linear-gradient);}.cls-27,.cls-29,.cls-39,.cls-47,.cls-55{mix-blend-mode:multiply;}.cls-28,.cls-39,.cls-47{fill:#5fb0e7;}.cls-30{fill:#ffe1bd;}.cls-31{fill:#fccb95;}.cls-32{fill:#594a5f;}.cls-33{fill:#f9b253;}.cls-34{fill:#2c1e56;}.cls-35{fill:#39297f;}.cls-36{fill:#4c4199;}.cls-37{fill:#f29127;}.cls-38{fill:#00215b;}.cls-42{fill:#3a3a3a;}.cls-43{fill:#4c4051;}.cls-44{fill:#f4d4b3;}.cls-45{fill:#1c44b5;}.cls-46{fill:#ffd1ab;}.cls-48,.cls-49{fill:#aec1ff;}.cls-50{fill:#b8ecff;}.cls-51{fill:#15a7ce;}.cls-52{fill:#ebfaff;}.cls-53{fill:#b2ebf9;}.cls-54{fill:#80d4dd;}.cls-55{opacity:0.47;fill:url(#linear-gradient-2);}</style><linearGradient id="linear-gradient" x1="54.16" y1="166.27" x2="325.64" y2="166.27" gradientUnits="userSpaceOnUse"><stop offset="0" stop-color="#2484c6"/><stop offset="1" stop-color="#2484c6" stop-opacity="0"/></linearGradient><linearGradient id="linear-gradient-2" x1="193.62" y1="81.06" x2="195.47" y2="81.06" gradientUnits="userSpaceOnUse"><stop offset="0" stop-color="#f7941e"/><stop offset="1" stop-color="#f7941e" stop-opacity="0"/></linearGradient></defs><title>Banner Insights</title><g class="cls-1"><g id="OBJECTS"><g class="cls-2"><path class="cls-3" d="M65.06,171.94a16.18,16.18,0,1,0-12.2,26.81A16,16,0,0,0,60.09,197,16.2,16.2,0,0,0,68.69,186a15.7,15.7,0,0,0,.36-3.38A16.11,16.11,0,0,0,65.06,171.94ZM66,185.38a13.38,13.38,0,1,1,.3-2.81A13.74,13.74,0,0,1,66,185.38Z" transform="translate(-22.73 -17.3)"/></g><path class="cls-4" d="M68.69,186A16.2,16.2,0,0,1,60.09,197l-1.23-2.45A13.46,13.46,0,0,0,66,185.38Z" transform="translate(-22.73 -17.3)"/><path class="cls-5" d="M65.06,171.94,63,173.74a13.41,13.41,0,0,0-19.69-.59l-2-1.92a16.16,16.16,0,0,1,23.74.71Z" transform="translate(-22.73 -17.3)"/><g class="cls-6"><g class="cls-2"><path class="cls-3" d="M159.82,34.66A10.76,10.76,0,1,0,162.24,44a10.48,10.48,0,0,0,.24-2.25A10.71,10.71,0,0,0,159.82,34.66Zm.63,9a8.91,8.91,0,1,1,.2-1.87A9,9,0,0,1,160.45,43.61Z" transform="translate(-22.73 -17.3)"/></g><path class="cls-4" d="M162.24,44a10.81,10.81,0,0,1-5.72,7.38l-.82-1.63a9,9,0,0,0,4.75-6.13Z" transform="translate(-22.73 -17.3)"/><path class="cls-5" d="M159.82,34.66l-1.38,1.2a8.93,8.93,0,0,0-13.1-.39L144,34.19a10.76,10.76,0,0,1,15.79.47Z" transform="translate(-22.73 -17.3)"/></g><path class="cls-7" d="M39.77,224.59l1.64-1.23a10.27,10.27,0,0,0-3.13-3.13l-1.22,1.64a8.31,8.31,0,0,0-2.28-.94l.29-2a10,10,0,0,0-2.21-.25,10.21,10.21,0,0,0-2.22.25l.3,2a8.18,8.18,0,0,0-2.28.94l-1.22-1.64a10.27,10.27,0,0,0-3.13,3.13L26,224.59a7.8,7.8,0,0,0-.95,2.28l-2-.3A10.34,10.34,0,0,0,23,231l2-.3A8,8,0,0,0,26,233l-1.64,1.22a10.16,10.16,0,0,0,3.13,3.13l1.22-1.64a8.18,8.18,0,0,0,2.28.94l-.3,2a10.21,10.21,0,0,0,2.22.25,10,10,0,0,0,2.21-.25l-.29-2a8.31,8.31,0,0,0,2.28-.94l1.22,1.64a10.16,10.16,0,0,0,3.13-3.13L39.77,233a8.27,8.27,0,0,0,.95-2.29l2,.3a9.94,9.94,0,0,0,0-4.43l-2,.3A8.08,8.08,0,0,0,39.77,224.59Zm-6.91,9.57a5.38,5.38,0,1,1,5.38-5.37A5.37,5.37,0,0,1,32.86,234.16Z" transform="translate(-22.73 -17.3)"/><path class="cls-8" d="M354,70.7l2.46-1.83a15.21,15.21,0,0,0-4.69-4.69l-1.83,2.45a12.1,12.1,0,0,0-3.42-1.41l.44-3a14.69,14.69,0,0,0-6.64,0l.45,3a11.87,11.87,0,0,0-3.42,1.41l-1.83-2.45a15.24,15.24,0,0,0-4.7,4.69l2.46,1.83a12.12,12.12,0,0,0-1.42,3.42l-3-.44a14.65,14.65,0,0,0,0,6.63l3-.44a12.12,12.12,0,0,0,1.42,3.42l-2.46,1.83a15.27,15.27,0,0,0,4.7,4.7l1.83-2.46a11.89,11.89,0,0,0,3.42,1.42l-.45,3a14.69,14.69,0,0,0,6.64,0l-.44-3a12.12,12.12,0,0,0,3.42-1.42l1.83,2.46a15.24,15.24,0,0,0,4.69-4.7L354,83.29a11.84,11.84,0,0,0,1.42-3.42l3,.44a14.65,14.65,0,0,0,0-6.63l-3,.44A11.84,11.84,0,0,0,354,70.7ZM343.59,85.06A8.07,8.07,0,1,1,351.66,77,8.06,8.06,0,0,1,343.59,85.06Z" transform="translate(-22.73 -17.3)"/><path class="cls-9" d="M122.25,22.46a4.17,4.17,0,1,1-4.17-4.16A4.17,4.17,0,0,1,122.25,22.46Z" transform="translate(-22.73 -17.3)"/><path class="cls-10" d="M283.59,37.58a4.17,4.17,0,1,1-4.17-4.16A4.17,4.17,0,0,1,283.59,37.58Z" transform="translate(-22.73 -17.3)"/><circle class="cls-11" cx="150.3" cy="51.02" r="6.52"/><path class="cls-11" d="M365.3,165.56a6.52,6.52,0,1,1-6.51-6.52A6.51,6.51,0,0,1,365.3,165.56Z" transform="translate(-22.73 -17.3)"/><path class="cls-12" d="M325.64,88.08V244.47a6.74,6.74,0,0,1-6.74,6.74H60.9a6.74,6.74,0,0,1-6.74-6.74V88.08a6.74,6.74,0,0,1,6.74-6.74h258A6.74,6.74,0,0,1,325.64,88.08Z" transform="translate(-22.73 -17.3)"/><polygon class="cls-12" points="194.79 262.73 139.56 262.73 145.56 239.14 146.91 233.79 149.56 223.43 184.79 223.43 187.44 233.79 188.79 239.14 194.79 262.73"/><polygon class="cls-13" points="188.79 239.14 145.56 239.14 146.91 233.79 187.44 233.79 188.79 239.14"/><path class="cls-13" d="M238.72,286.54H141.08a4.24,4.24,0,0,1-4.24-4.24h0a4.24,4.24,0,0,1,4.24-4.24h97.64A4.24,4.24,0,0,1,243,282.3h0A4.24,4.24,0,0,1,238.72,286.54Z" transform="translate(-22.73 -17.3)"/><rect class="cls-14" x="30.93" y="88.18" width="271.99" height="118.67"/><path class="cls-15" d="M189.89,243.5h0a6.28,6.28,0,0,1-6.26-6.26h0a6.28,6.28,0,0,1,6.26-6.26h0a6.27,6.27,0,0,1,6.25,6.26h0A6.27,6.27,0,0,1,189.89,243.5Z" transform="translate(-22.73 -17.3)"/><rect class="cls-16" x="125.01" y="91.35" width="171.84" height="73.38" rx="3.28"/><path class="cls-17" d="M315,147.93v27.89a2.26,2.26,0,0,1-2.26,2.25H154a2.26,2.26,0,0,1-2.26-2.25V114.56c14.66,0,22,5.48,26.24,12.68q.42.69.78,1.41c7.24,13.7,5.06,32.48,21,32.48a6.55,6.55,0,0,0,1.68-.21,4.68,4.68,0,0,0,1-.32c10.71-4.51,9-36.52,28.09-36.29a12.85,12.85,0,0,1,9.51,4.1c.23.25.46.5.68.77,8.53,10,8.65,32.32,21.75,36.37,4.72,1.46,8.89-.52,13-3.79.26-.21.53-.42.79-.65,8.71-7.23,17.37-19.59,30.81-16.56l1.18.3A28.1,28.1,0,0,1,315,147.93Z" transform="translate(-22.73 -17.3)"/><path class="cls-18" d="M315,142.3a10,10,0,0,0-6.78,2.55c-3.24,2.87-5,7.77-6.68,12.56C299,164.58,296.33,172,288.64,172c-.41,0-.84,0-1.28-.06-5-.49-8.7-4.57-11.95-10.16-2-3.46-3.87-7.51-5.75-11.66-5.32-11.67-10.83-23.74-21-24h-.34a11.07,11.07,0,0,0-7.7,3.11c-4.29,3.91-7,11-9.69,17.86-4,10.21-8,20.77-17.24,21-6.62.14-9.63-2.36-12.33-7.1-1-1.84-2-4-3.18-6.51a120.18,120.18,0,0,0-9-16.83,23.47,23.47,0,0,0-10.5-8.93c-10.62-4.63-23.12-1.24-27,0v-1.05c4.18-1.32,15.86-4.31,26.24-.39a24.51,24.51,0,0,1,12.11,9.8,120.18,120.18,0,0,1,9.06,17c1.18,2.58,2.19,4.79,3.25,6.61,2.54,4.39,5.33,6.56,11.33,6.42,8.54-.2,12.32-10,16.33-20.34,2.72-7,5.49-14.21,9.94-18.27a12,12,0,0,1,8.74-3.33c10.78.29,16.41,12.65,21.86,24.61,1.86,4.06,3.66,8,5.63,11.42,3.12,5.42,6.62,9.35,11.26,9.81,7.92.78,10.44-6.32,13.11-13.85,1.66-4.69,3.36-9.47,6.44-12.52A10.93,10.93,0,0,1,315,141.3Z" transform="translate(-22.73 -17.3)"/><rect class="cls-19" x="205.99" y="167.83" width="90.86" height="16.08" rx="2.79"/><rect class="cls-16" x="205.99" y="187.27" width="90.86" height="16.08" rx="2.79"/><rect class="cls-20" x="37.9" y="91.35" width="84.33" height="35.51" rx="3.28"/><g class="cls-21"><rect class="cls-22" x="105.35" y="100.27" width="5.83" height="23.58" rx="0.83"/><rect class="cls-22" x="113.36" y="94.75" width="5.83" height="29.1" rx="0.92"/><rect class="cls-22" x="41.24" y="94.75" width="5.83" height="29.1" rx="0.92"/><rect class="cls-22" x="49.25" y="101.64" width="5.83" height="22.21" rx="0.8"/><rect class="cls-22" x="57.26" y="94.75" width="5.83" height="29.1" rx="0.92"/><rect class="cls-22" x="65.28" y="107.78" width="5.83" height="16.07" rx="0.68"/><rect class="cls-22" x="73.29" y="94.75" width="5.83" height="29.1" rx="0.92"/><rect class="cls-22" x="81.3" y="100.27" width="5.83" height="23.58" rx="0.83"/><rect class="cls-22" x="89.32" y="94.75" width="5.83" height="29.1" rx="0.92"/><rect class="cls-22" x="97.33" y="101.64" width="5.83" height="22.21" rx="0.8"/></g><rect class="cls-16" x="37.9" y="129.59" width="84.33" height="35.51" rx="3.28"/><rect class="cls-16" x="37.9" y="167.83" width="84.33" height="35.51" rx="3.28"/><path class="cls-23" d="M140.71,151.49a1.59,1.59,0,0,0-1.58,1.59,1.57,1.57,0,0,0,.21.78l-12.89,14.56a1.63,1.63,0,0,0-.59-.12,1.58,1.58,0,0,0-.65.14l-13.87-13.63a1.58,1.58,0,1,0-3-.65,1.5,1.5,0,0,0,.16.67L90.63,174.09a1.59,1.59,0,0,0-.91-.29A1.56,1.56,0,0,0,89,174l-9.76-12.72a1.54,1.54,0,0,0,.3-.92,1.59,1.59,0,1,0-3,.78L65.6,175.32a1.74,1.74,0,0,0-.56-.1,1.59,1.59,0,1,0,1.59,1.58,1.66,1.66,0,0,0-.25-.85l10.9-14.13a1.45,1.45,0,0,0,.63.13,1.84,1.84,0,0,0,.47-.07l9.89,12.87a1.51,1.51,0,0,0-.13.63,1.58,1.58,0,1,0,3.16,0,1.5,1.5,0,0,0-.08-.47l17.94-19.36a1.54,1.54,0,0,0,.74.19,1.48,1.48,0,0,0,.75-.2l13.83,13.58a1.56,1.56,0,0,0-.21.77,1.59,1.59,0,0,0,3.17,0,1.56,1.56,0,0,0-.23-.81l12.88-14.55a1.6,1.6,0,0,0,.62.13,1.59,1.59,0,0,0,0-3.17Z" transform="translate(-22.73 -17.3)"/><rect class="cls-24" x="40.99" y="170.52" width="71.33" height="3" rx="1.43"/><rect class="cls-24" x="40.99" y="175.87" width="64.17" height="3" rx="1.36"/><path class="cls-24" d="M140.79,201.52H65.21a1.5,1.5,0,0,1-1.5-1.5h0a1.5,1.5,0,0,1,1.5-1.5h75.58a1.5,1.5,0,0,1,1.5,1.5h0A1.5,1.5,0,0,1,140.79,201.52Z" transform="translate(-22.73 -17.3)"/><rect class="cls-24" x="40.99" y="186.58" width="57.08" height="3" rx="1.28"/><rect class="cls-24" x="40.99" y="191.94" width="72.08" height="3" rx="1.44"/><path class="cls-24" d="M140.79,217.59H65.21a1.5,1.5,0,0,1-1.5-1.5h0a1.5,1.5,0,0,1,1.5-1.5h75.58a1.5,1.5,0,0,1,1.5,1.5h0A1.5,1.5,0,0,1,140.79,217.59Z" transform="translate(-22.73 -17.3)"/><path class="cls-19" d="M183.45,202.88a17.76,17.76,0,1,1-17.75-17.75,17.36,17.36,0,0,1,4.1.48,17.75,17.75,0,0,1,13.59,15.86Q183.45,202.18,183.45,202.88Z" transform="translate(-22.73 -17.3)"/><path class="cls-25" d="M183.39,201.47l-17.69,1.41,4.1-17.27A17.75,17.75,0,0,1,183.39,201.47Z" transform="translate(-22.73 -17.3)"/><path class="cls-19" d="M223,188H188.82a1.17,1.17,0,0,1-1.17-1.17h0a1.17,1.17,0,0,1,1.17-1.17H223a1.18,1.18,0,0,1,1.17,1.17h0A1.17,1.17,0,0,1,223,188Z" transform="translate(-22.73 -17.3)"/><rect class="cls-19" x="164.92" y="172.97" width="31.37" height="2.34" rx="1.08"/><rect class="cls-19" x="164.92" y="177.62" width="24.25" height="2.34" rx="0.95"/><path class="cls-19" d="M223,201.91H188.82a1.17,1.17,0,0,1-1.17-1.17h0a1.17,1.17,0,0,1,1.17-1.17H223a1.17,1.17,0,0,1,1.17,1.17h0A1.18,1.18,0,0,1,223,201.91Z" transform="translate(-22.73 -17.3)"/><rect class="cls-19" x="164.92" y="186.92" width="32.5" height="2.34" rx="1.1"/><path class="cls-19" d="M223,211.21H188.82a1.17,1.17,0,0,1-1.17-1.17h0a1.17,1.17,0,0,1,1.17-1.17H223a1.17,1.17,0,0,1,1.17,1.17h0A1.17,1.17,0,0,1,223,211.21Z" transform="translate(-22.73 -17.3)"/><rect class="cls-19" x="164.92" y="196.23" width="29.5" height="2.34" rx="1.05"/><path class="cls-19" d="M223,220.51H188.82a1.17,1.17,0,0,1-1.17-1.17h0a1.17,1.17,0,0,1,1.17-1.17H223a1.18,1.18,0,0,1,1.17,1.17h0A1.17,1.17,0,0,1,223,220.51Z" transform="translate(-22.73 -17.3)"/><path class="cls-26" d="M325.64,88.08V244.47a6.74,6.74,0,0,1-6.74,6.74H60.9a6.74,6.74,0,0,1-6.74-6.74V88.08a6.74,6.74,0,0,1,6.74-6.74h258A6.74,6.74,0,0,1,325.64,88.08Z" transform="translate(-22.73 -17.3)"/><g class="cls-27"><path class="cls-28" d="M143.39,163.63c.09-.38-.35-.49-.81.26a4.26,4.26,0,0,1-2.88,1.92c-.08-.2.2-.27.4-.71s.08-.83-.13-.91-.54.5-.67.6L137.84,166a3.16,3.16,0,0,0-1.06,1.44s0,.18-.07.36c-3.25,2.48-14,5.58-15.44,6.46a25.31,25.31,0,0,1-5.35.24c0-.34,0-.55,0-.55s-4.44-.74-6.56-2a4.8,4.8,0,0,0-3-.6,4.13,4.13,0,0,0-.32-.49l-.06-.08c-.54-.63-1.34-1-1.83-1.62a8.49,8.49,0,0,1,.34-3.42,14.51,14.51,0,0,1,2.94-2.83,3,3,0,0,0,.74-3.16,23.71,23.71,0,0,0-1.1-4.2c-.25-.51-.69-.86-.92-1.31A1.83,1.83,0,0,1,106,154c.63-.71-1.21-5.87-6.88-5.73a9.77,9.77,0,0,0-4.19.78c-1.27.64-2.69,1.79-2.6,2.93-2,.39-2.29,2.43-2.45,3.2a10.21,10.21,0,0,0-.12,3.31c.21,1.63.82,3.19,1.14,4.8a7,7,0,0,1-.18,4c-.5,1.2-1.69,1.85-2.3,3a5.32,5.32,0,0,0,.07,4.82c.36.67.74,1.24,1,1.82a58.93,58.93,0,0,0-1.65,6.07L73,185.6a.81.81,0,0,0-.66.93L76,208.23a.8.8,0,0,0,.93.65l12.56-2.13a20.58,20.58,0,0,0,0,5.14c.2,1.47,1.68,5.51,1.91,7,.52,3.35,1.59,8.26,1.53,12.07a8.36,8.36,0,0,0,1,.66A87.84,87.84,0,0,1,95.41,241c-.2,1.43-1.78,5.45-2.32,9.66,0,.17,0,.35-.06.55h8.24c.57-3,1-5.68,1.33-7.71h0c.07-.51.13-1,.18-1.38,0,0,0-.09,0-.12,0-.23,0-.44.06-.64s0-.72.08-1.1c0-.11,0-.23,0-.34,0-.31,0-.63,0-1,0-.09,0-.18,0-.28,0-.41,0-.83,0-1.28,0-.13,0-.27,0-.4,0-.34,0-.68,0-1,0-.16,0-.32,0-.48v-.4l2.45,7.09a45.1,45.1,0,0,0-1.46,9.05H112c.25-4.56.46-8.35.53-10.16a78.91,78.91,0,0,0-.25-9.52h0a84,84,0,0,0,0-14.65,53.28,53.28,0,0,0-2.79-13.52l7.75-1.32a.79.79,0,0,0,.65-.92l-3.42-20.17a10.67,10.67,0,0,1,1.2.06,6.5,6.5,0,0,0,.17-.93c2.8-.24,5.13-.49,5.71-.6,4.54-.89,15.83-8.53,16.82-9.21a4.49,4.49,0,0,0,3.32-1.43,1.48,1.48,0,0,0,.25-1c.32-.38.88-1.72-.09-1.44A4.11,4.11,0,0,0,143.39,163.63Z" transform="translate(-22.73 -17.3)"/></g><path class="cls-29" d="M124.09,287.56c0,1.37-9.94,2.48-22.2,2.48s-22.2-1.11-22.2-2.48,9.94-2.49,22.2-2.49S124.09,286.18,124.09,287.56Z" transform="translate(-22.73 -17.3)"/><path class="cls-30" d="M99.61,208.33,89,199.83a19.86,19.86,0,0,0-.52,12.25c1,3.08-.06,5.27.47,6.73s4.07,20.76,3.87,22.19-1.78,5.45-2.32,9.65c-.65,5.06-.13,21.47-.62,25.83s3.55,5,3.73,3.53c1.59-12.63,6.11-32.35,6.66-38.66S100.3,223.53,99.61,208.33Z" transform="translate(-22.73 -17.3)"/><path class="cls-31" d="M99.93,220.73l-4.26,10.44a23.21,23.21,0,0,1,3.41,10.77c.12,2,0,4,.09,6a2.17,2.17,0,0,0,.08.43c.53-3,.92-5.42,1.06-7,.39-4.46.22-11.52-.15-20.64A1.79,1.79,0,0,0,99.93,220.73Z" transform="translate(-22.73 -17.3)"/><path class="cls-30" d="M94.25,276s-.85,4.59-.58,5.17A8.16,8.16,0,0,0,95.89,284c1,.62,3.26,1.33,3.44,1.6a.69.69,0,0,1-.1.94,4.64,4.64,0,0,1-3.15.88c-3-.43-3.37-1.75-5.13-1.92-.3,0-.85.43-1.7,0A2,2,0,0,1,88,283.56a8.53,8.53,0,0,1,1.26-3.25c.48-.94.73-5.21.73-5.21" transform="translate(-22.73 -17.3)"/><path class="cls-32" d="M99.47,286.7c.21-.38.25-.95,0-1.08a17.89,17.89,0,0,0-1.9-1.09c-.59-.25-1.52-.47-1.19-.3s-.26.84-.8.82c-1.9-.07-3.32-1.29-4.4-1.53a3.71,3.71,0,0,1-2.33-2.46,7,7,0,0,0-1.06,2.15,3.78,3.78,0,0,0-.2,1.63,3.71,3.71,0,0,1,.21,1.54,3,3,0,0,0,1.13.38,4.41,4.41,0,0,0,1.2,0l.11-1a4.2,4.2,0,0,1,1,.07,5.45,5.45,0,0,1,1.49.65c.22.25.4.71.69.85a6,6,0,0,0,2.49.56C97.94,288,99.11,287.35,99.47,286.7Z" transform="translate(-22.73 -17.3)"/><path class="cls-30" d="M114.81,285.73c-.22-.24-2.63-.61-3.76-1.07a6.47,6.47,0,0,1-2.65-2.47,26.94,26.94,0,0,1-.21-5c.13-9,1.56-30.88,1.75-36.13.33-9.12-1-18.52-4.61-33.12L92.17,198s-3.59,6.84-2.3,13.33c.75,3.76,3.88,4.31,4.43,5.77s8.68,25,8.68,25a44.5,44.5,0,0,0-1.51,10.72c0,4.78,2.28,19.17,2.74,24.66.06,1.07.27,3.64,0,4.46-.38,1-1.35,2.2-1.29,3.46a1.92,1.92,0,0,0,1.5,1.7c.93.28,1.44-.26,1.76-.28,1.84-.09,2.36,1.17,5.54,1.14a5,5,0,0,0,3.14-1.35A.66.66,0,0,0,114.81,285.73Z" transform="translate(-22.73 -17.3)"/><path class="cls-32" d="M115.1,286.85c.17-.41.14-1-.09-1.08a18.64,18.64,0,0,0-2.11-.79c-.64-.16-1.63-.24-1.27-.12s-.15.87-.72.94c-2,.21-3.59-.79-4.74-.87a3,3,0,0,1-2.4-2.09,7.86,7.86,0,0,0-1.15,2.3,3.63,3.63,0,0,0,0,1.64,3.57,3.57,0,0,1,.41,1.5,3.07,3.07,0,0,0,1.21.2,4.58,4.58,0,0,0,1.24-.19v-1a4.76,4.76,0,0,1,1-.07,3.29,3.29,0,0,1,1.62.56c.28.2.56.54.88.61a6.74,6.74,0,0,0,2.58.17C113.68,288.34,114.81,287.55,115.1,286.85Z" transform="translate(-22.73 -17.3)"/><path class="cls-30" d="M135.82,170.25a4.47,4.47,0,0,0,3.34-1.43,1.45,1.45,0,0,0,.25-.95c.32-.38.88-1.72-.09-1.44a4.07,4.07,0,0,0,1.52-2.8c.09-.38-.35-.49-.81.26a4.29,4.29,0,0,1-2.88,1.92c-.08-.21.2-.27.41-.71s.07-.83-.14-.91-.54.49-.67.6L135.29,166a3.11,3.11,0,0,0-1.06,1.44c0,.11-.29,1.23.19,1.07" transform="translate(-22.73 -17.3)"/><path class="cls-30" d="M104.13,180.6c4.9-.06,13.68-.9,14.89-1.14,4.75-.93,16.9-9.26,16.9-9.26a2.31,2.31,0,0,0-1.62-2.48c-3.08,2.5-14.11,5.67-15.58,6.56-1,.58-16.38-.05-16.38-.05" transform="translate(-22.73 -17.3)"/><path class="cls-33" d="M87.8,174.57A62.82,62.82,0,0,0,85,184.63l5,.79v-7.14" transform="translate(-22.73 -17.3)"/><rect class="cls-34" x="71.35" y="182.01" width="42.47" height="23.61" rx="0.8" transform="translate(-53.88 0.95) rotate(-9.64)"/><path class="cls-35" d="M113.33,200.65l-38,6.62a.69.69,0,0,1-.81-.57l-3.22-18.91a.71.71,0,0,1,.58-.81l38-6.62a.69.69,0,0,1,.81.57l3.21,18.91A.7.7,0,0,1,113.33,200.65Z" transform="translate(-22.73 -17.3)"/><path class="cls-36" d="M77.28,205.51l-.64.11a.6.6,0,0,1-.69-.5l-2.77-16.29a.59.59,0,0,1,.49-.69l.64-.11a.59.59,0,0,1,.69.49l2.77,16.29A.6.6,0,0,1,77.28,205.51Z" transform="translate(-22.73 -17.3)"/><path class="cls-36" d="M80.69,204.85l-.63.11a.6.6,0,0,1-.7-.49L76.6,188.18a.6.6,0,0,1,.49-.7l.63-.1a.6.6,0,0,1,.7.49l2.77,16.29A.6.6,0,0,1,80.69,204.85Z" transform="translate(-22.73 -17.3)"/><path class="cls-36" d="M84.11,204.2l-.63.11a.62.62,0,0,1-.7-.5L80,187.52a.6.6,0,0,1,.5-.69l.63-.11a.61.61,0,0,1,.7.49l2.76,16.3A.6.6,0,0,1,84.11,204.2Z" transform="translate(-22.73 -17.3)"/><path class="cls-36" d="M87.53,203.55l-.64.1a.59.59,0,0,1-.69-.49l-2.77-16.29a.6.6,0,0,1,.49-.7l.64-.1a.59.59,0,0,1,.69.49L88,202.85A.6.6,0,0,1,87.53,203.55Z" transform="translate(-22.73 -17.3)"/><path class="cls-36" d="M90.94,202.89l-.63.11a.62.62,0,0,1-.7-.49l-2.76-16.3a.59.59,0,0,1,.49-.69l.63-.11a.62.62,0,0,1,.7.49l2.77,16.3A.6.6,0,0,1,90.94,202.89Z" transform="translate(-22.73 -17.3)"/><path class="cls-36" d="M94.36,202.24l-.63.1a.6.6,0,0,1-.7-.49l-2.77-16.29a.62.62,0,0,1,.5-.7l.63-.1a.6.6,0,0,1,.7.49l2.76,16.29A.6.6,0,0,1,94.36,202.24Z" transform="translate(-22.73 -17.3)"/><path class="cls-36" d="M97.78,201.58l-.64.11a.6.6,0,0,1-.69-.49l-2.77-16.3a.6.6,0,0,1,.49-.69l.64-.11a.6.6,0,0,1,.69.5l2.77,16.29A.59.59,0,0,1,97.78,201.58Z" transform="translate(-22.73 -17.3)"/><path class="cls-36" d="M101.19,200.93l-.63.1a.6.6,0,0,1-.7-.49L97.1,184.25a.6.6,0,0,1,.49-.7l.63-.1a.6.6,0,0,1,.7.49l2.77,16.29A.62.62,0,0,1,101.19,200.93Z" transform="translate(-22.73 -17.3)"/><path class="cls-36" d="M104.61,200.27l-.63.11a.6.6,0,0,1-.7-.49l-2.77-16.3a.61.61,0,0,1,.5-.69l.63-.11a.62.62,0,0,1,.7.5l2.76,16.29A.59.59,0,0,1,104.61,200.27Z" transform="translate(-22.73 -17.3)"/><path class="cls-36" d="M108,199.62l-.64.11a.6.6,0,0,1-.69-.5l-2.77-16.29a.59.59,0,0,1,.49-.69l.64-.11a.59.59,0,0,1,.69.49l2.77,16.3A.6.6,0,0,1,108,199.62Z" transform="translate(-22.73 -17.3)"/><path class="cls-36" d="M111.44,199l-.63.1a.6.6,0,0,1-.7-.49l-2.76-16.29a.6.6,0,0,1,.49-.7l.63-.1a.6.6,0,0,1,.7.49l2.77,16.29A.62.62,0,0,1,111.44,199Z" transform="translate(-22.73 -17.3)"/><path class="cls-32" d="M91.3,198c-3.63,3.13-5,8.33-4.3,13.88.2,1.47,1.68,5.51,1.91,7,.52,3.34,1.59,8.26,1.53,12.07,4.87,3.54,14.78,3.23,19.26.59a83.05,83.05,0,0,0,0-14.65c-.53-9.63-4.83-18.61-4.91-19.41" transform="translate(-22.73 -17.3)"/><path class="cls-33" d="M104.7,188.8a46.13,46.13,0,0,0,.24,7.3,15.9,15.9,0,0,1,.24,1.93,1.1,1.1,0,0,1-.38.75,5.25,5.25,0,0,1-2.64,1c-3.62.66-9.33.22-10.94.54s-3.06-.21-3.06-1.14c0-.64.58-1,.64-2.26a75,75,0,0,0-.48-11.86,46.61,46.61,0,0,1-.62-16l11-3.13c.85.14.48,2.73,1.33,2.87.62.1,4.11,3.42,5.1,7.34a14.87,14.87,0,0,1,1.27,2.54,4.47,4.47,0,0,1,0,3.48A24.51,24.51,0,0,0,104.7,188.8Z" transform="translate(-22.73 -17.3)"/><path class="cls-37" d="M104.7,188.8a46.13,46.13,0,0,0,.24,7.3,15.9,15.9,0,0,1,.24,1.93,1.1,1.1,0,0,1-.38.75h0c.33-.73-.46-4.35-.79-6.39a23.14,23.14,0,0,1,.47-8.47c.72-2.49,1-3.68,1-3.68s.57-.85,1-1.49a4.47,4.47,0,0,1,0,3.48A24.51,24.51,0,0,0,104.7,188.8Z" transform="translate(-22.73 -17.3)"/><path class="cls-33" d="M103.53,171.43a4.8,4.8,0,0,1,3.25.55c2.12,1.26,6.56,2,6.56,2s.35,5.07-.2,7a27,27,0,0,0-5.85.24c-4.52.49-10.56,3.49-10.56,3.49" transform="translate(-22.73 -17.3)"/><path class="cls-30" d="M103.56,154.28c-1.08-2.07-2.8-5-6.9-4.6s-7.61,3-7.56,6.06,2.13,6.78,2.93,8.9a14,14,0,0,1,.46,5.29l9.09-.33s-.23-2.78.32-3.83a14.82,14.82,0,0,1,2.94-2.82,3,3,0,0,0,.75-3.16,24.54,24.54,0,0,0-1.11-4.21C104.23,155.07,103.79,154.73,103.56,154.28Z" transform="translate(-22.73 -17.3)"/><path class="cls-38" d="M103.39,170.82c-.55-.65-1.39-1-1.88-1.68a3.77,3.77,0,0,1-.65-2.46,4.72,4.72,0,0,1,.54-1.39c1-2,1-3.28-.36-4.89a5.73,5.73,0,0,1-1.15-1.74c-.21-.6-.38-1.25.2-1.61a.77.77,0,0,1,1,0c.22.2.87,2.1,1,.79s.59-1.56-.51-3.8c-.13-.27-.74-1.32-.65-1.55a3,3,0,0,1,2.47,1.54c.63-.71-1.21-5.87-6.88-5.73a9.69,9.69,0,0,0-4.18.77c-1.28.65-2.7,1.79-2.61,2.94-2,.38-2.29,2.43-2.45,3.19a10.28,10.28,0,0,0-.12,3.32c.22,1.63.82,3.19,1.14,4.8a6.93,6.93,0,0,1-.18,4c-.5,1.2-1.69,1.86-2.29,3a5.29,5.29,0,0,0,.06,4.82c.79,1.48,1.77,2.45,1.51,4.28A5.82,5.82,0,0,0,89.35,185a6,6,0,0,0,4.33,1.18,10,10,0,0,0,3.55-1.12c2.12-1.15,4-1.9,5.38-5,.77-1.73-.36-2,.33-3.75.39-1,1.21-1.81,1.32-2.92a3.68,3.68,0,0,0-.81-2.56Z" transform="translate(-22.73 -17.3)"/><path class="cls-39" d="M299.44,250.81c-.3-.45-.63-.86-1-1.27h0l0,0c-.19-.23-.39-.46-.59-.68-3.59-4.33-3.81-8-3.81-8.1-.06-4.91-.12-11.74-.18-16.56,0-1.35,0-2.55,0-3.5,0-.4,0-.75,0-1.06,0,0,.06-.39.15-.9s.19-1.15.29-1.66.21-1.15.31-1.83h0a18.37,18.37,0,0,0,0-5.34,5.93,5.93,0,0,1,1.8.39s-.73-2.58-1.49-5.66c-.28-1.09-.55-2.24-.81-3.36a43.93,43.93,0,0,1-1-5.52c-.17-2.57.57-6.35,1.07-10.56.12-1,.22-2,.29-3.1s.12-2,.12-3c0-.31,0-.62,0-.92a19,19,0,0,0-1.63-7c-.14-.31-.28-.61-.44-.9a28.86,28.86,0,0,0-3.33-5,3.07,3.07,0,0,0-1-1.51,9.3,9.3,0,0,1-.26-3.08c1.54-.64,3.12-6.67,2.41-11q-.06-.39-.15-.75c-.89-3.8-3.34-5.29-5.14-5-3.9-4.76-9.8.45-11.16,1.1a16.38,16.38,0,0,1-4.79,1.52,7,7,0,0,1-1.07.06,2.17,2.17,0,0,1-.68-.1c.31,4,1.8,5.92,3.66,6.62a5.05,5.05,0,0,0,1.26.31,7,7,0,0,0,1,0,2.89,2.89,0,0,0,.59,2.19c.09.14.46.34.5.51a4.86,4.86,0,0,1,0,1.66.66.66,0,0,0,0,.14c-.09.42-.19,1-.26,1.53,0,.31-.06.62-.06.87a1.61,1.61,0,0,0,.06.5c.12.32.54.4,1,.39l.48,0,.2.42a12.23,12.23,0,0,0,2,3,2.77,2.77,0,0,0,.74.19,9.58,9.58,0,0,0,4.25-.86,9,9,0,0,1,.33,1.21l-.65.22a17.64,17.64,0,0,0,0,2.24,7.38,7.38,0,0,0-.74.74,4.61,4.61,0,0,0-.4.5,3.45,3.45,0,0,0-.2.32,37.32,37.32,0,0,0-4.08,9c-.42,1.29-.79,2.61-1.12,3.95l0,.06-.63.1c-2.79.5-7.71,1.5-12.89,2.94l-1.47.42,0,.24c-.8,0-2.06-.11-2.8,0-.48,0-1.48,1-2.42,1.73-.76.87-1.45,1.65-1.24,1.78l.12,0a1.44,1.44,0,0,0,.71-.4.63.63,0,0,0,.41,0c.37-.11.93-.8,1.2-1s.42-.28.7-.46a1.87,1.87,0,0,1,.91,0,.44.44,0,0,1-.23.53c-.25.16-.84.23-.89.4s0,.48.85.32A4.54,4.54,0,0,0,260,188a2.08,2.08,0,0,1,1.2-.38l.05.33s6.42.06,12.46-.08l1,0q-.14.71-.24,1.41a2.33,2.33,0,0,1-.37,0l-2.19.06a.47.47,0,0,0-.17,0H251.4l-1.5-4.17-1.12-3.1-1.43-3.95-2.58-7.16a.64.64,0,0,0-.8-.38l-.26.1a.63.63,0,0,0-.38.81l2.39,6.63,1.43,3.95,1.11,3.1,1.52,4.2c-.48-.4-.75-.45-.68,0a4.43,4.43,0,0,0,2.34,2.69,13.68,13.68,0,0,0,2.63.74,2.43,2.43,0,0,0,1,0,10.19,10.19,0,0,1,1.88-.25l0,.66s6.63.71,11.22,1.37c1.89.27,3.75.43,5.47.51-.05.48-.11,1-.16,1.45-.17,1.66-.3,3.27-.4,4.77-.09,1.19-.16,2.31-.22,3.36-.23,4.41-.27,7.45-.45,7.83,0,0,.57.58,2.56.7q0,.6.09,1.23h0c-.07.62-.24,3.11-.47,6.31-.07,1.1-.16,2.28-.24,3.5-.35,5-.75,10.75-1,13.88a3.89,3.89,0,0,0-.23,1.54c0,.35,0,3.87,0,4.29.07,1.62.21,4.21.38,7.35h8.29c-.05-.3-.11-.6-.17-.89l-.06-.32c0-.18,0-.4-.07-.69-.46-3.87-.47-2.75.59-7.64l1.92-4.89c1.14,4.05,2.09,7.5,2.49,9.54a.43.43,0,0,0,0,.05l.06.31a2.53,2.53,0,0,0,.16.5s0,.11.07.17a5.3,5.3,0,0,0,.48,1s0,0,0,0c.47.75,1.1,1.72,1.84,2.86H299.7Z" transform="translate(-22.73 -17.3)"/><g class="cls-40"><path class="cls-41" d="M254.22,286c0,.94,14.26,1.71,31.86,1.71s31.85-.77,31.85-1.71-14.26-1.71-31.85-1.71S254.22,285,254.22,286Z" transform="translate(-22.73 -17.3)"/></g><path class="cls-30" d="M272.25,277.07a45.89,45.89,0,0,0,.06,5.54c.19.81,2.71.89,3,.46s.7-5.66.7-5.66" transform="translate(-22.73 -17.3)"/><path class="cls-42" d="M276,283.8a17.72,17.72,0,0,1-.24,2.28h-3.05l-.15-.51a4.8,4.8,0,0,1-1.77.51h-2.58c-1.88,0-2.95-.24-3-.57-.2-1.39,2.05-1.32,2.64-1.32,1.68,0,3.51-.79,3.9-1.65.29-.62.17-.77.51-.66a.89.89,0,0,1,.53.45,1.54,1.54,0,0,0,1.59.87,1.76,1.76,0,0,0,1-.5A1.13,1.13,0,0,1,276,283.8Z" transform="translate(-22.73 -17.3)"/><path class="cls-30" d="M304,277.63s.83,2.24,1.2,3,2.85-.17,3-.69-1.89-4.37-1.89-4.37" transform="translate(-22.73 -17.3)"/><path class="cls-42" d="M309.07,280.35c.32.81.8,2.37.8,2.37l-2.31,1.38-.46-.34a4.64,4.64,0,0,1-1.21,1.27,10.16,10.16,0,0,1-2.29,1c-2.12.48-3.75.24-3.92-.05-.69-1.21,2.11-1.88,2.65-2.09a3.78,3.78,0,0,0,2.33-3.08c0-.69-.13-.79.23-.81,0,0,.71-.12,1.14.95,0,0,1.67-.3,2.09-1.35A1.11,1.11,0,0,1,309.07,280.35Z" transform="translate(-22.73 -17.3)"/><path class="cls-32" d="M291.08,219.58s.24-1.54.44-2.55c.62-3.2,1.59-9.62-3.65-14.68,0,0-6.17,2.76-11.11,3.09-3.89.26-4.79,0-4.79,0s-.25,5.25,1.32,18.42Z" transform="translate(-22.73 -17.3)"/><path class="cls-32" d="M307.63,276.62a21.73,21.73,0,0,1-4,1.93l-.37-.65-.8-1.45h0l0-.08c-.88-1.54-1.85-3.17-2.86-4.85h0l0,0c-5.49-9-12.5-19.14-15-23.13,0,0,0,0,0-.05a7,7,0,0,1-.48-.94c0-.06-.05-.12-.07-.17a2.76,2.76,0,0,1-.16-.5l-.06-.31a.43.43,0,0,1,0-.05,2.13,2.13,0,0,1,.51-1.79,1.64,1.64,0,0,1,.31-.28c1.35-1,4-.76,6.27.82l.34.25.18.13a21.32,21.32,0,0,1,5.33,5.35C301.77,258.47,304.78,270.05,307.63,276.62Z" transform="translate(-22.73 -17.3)"/><path class="cls-32" d="M291.38,246.23c.09,4.22-1.46,5.19-3.17,4.76a5.52,5.52,0,0,1-.88-.32,7.69,7.69,0,0,1-2.87-2.56s0,0,0-.05a5.81,5.81,0,0,1-.39-.71c0-.06-.05-.12-.07-.17a2.76,2.76,0,0,1-.16-.5l-.06-.31a.43.43,0,0,1,0-.05c-.41-2.1-1.4-5.71-2.59-9.92-.69-2.38-1.43-4.94-2.17-7.53-2.25-7.78-4.37-15.4-4.31-17.63.21-8,9.53-1.64,14,1.5,1.88,1.33,2.36,3.62,2.39,5.74s.22,21.53.3,27c0,.14,0,.27,0,.39S291.38,246.11,291.38,246.23Z" transform="translate(-22.73 -17.3)"/><path class="cls-32" d="M291.3,240.7s.2,4.15,4.45,8.84c0,0-6.15-1.86-6.48-2.22a21.55,21.55,0,0,1-1.86-4.72C287.46,242.15,291.3,240.7,291.3,240.7Z" transform="translate(-22.73 -17.3)"/><path class="cls-43" d="M302.44,276.36c-.88-1.54-1.85-3.17-2.86-4.85h0l0,0c-5.49-9-12.5-19.14-15-23.13,0,0,0,0,0-.05a7,7,0,0,1-.48-.94c0-.06-.05-.12-.07-.17a2.76,2.76,0,0,1-.16-.5l-.06-.31a.43.43,0,0,1,0-.05c-.41-2.1-1.4-5.71-2.59-9.92l7-18.83h2.56s-2.89,8.7-4.06,12.62-1.5,10-1.61,12.28c-.22,4.93,5.83,13.28,7.56,16.33C294.49,262.07,301.81,275.12,302.44,276.36Z" transform="translate(-22.73 -17.3)"/><path class="cls-32" d="M276.08,280.71c-.12,0-.25,0-.37,0a20.06,20.06,0,0,1-4-.3v-.74c.21-11.36-1.06-30-1.29-35.82,0-.41,0-3.94,0-4.28-.11-5.06,4.95-.55,6.8,3.41a15.73,15.73,0,0,1,1,3c.32,1.33.34,2.8.66,4.3C280.83,259.18,276.88,273.38,276.08,280.71Z" transform="translate(-22.73 -17.3)"/><path class="cls-32" d="M288.12,219.55c0,.12-8.37,20.84-10,25.34h0a2.74,2.74,0,0,1-2,1.38c-2.25.55-5.56-.36-5.74-4.83a11.15,11.15,0,0,1,.06-1.6c.39-3.61,1.68-23.59,1.88-25.51s.62-4.73,1.65-5.06C279.11,207.64,289.63,212.35,288.12,219.55Z" transform="translate(-22.73 -17.3)"/><path class="cls-32" d="M279.42,241.32c-1.14,5.31-1.14,4-.66,8s-1.24-3.37-1.24-3.37l1.06-2.69Z" transform="translate(-22.73 -17.3)"/><path class="cls-44" d="M256.17,186.68a5,5,0,0,0-1.26-.09,3.51,3.51,0,0,1-.44.27v.23h-.08l-.92.59c-.08.06-1,1.16-1,1.16a.55.55,0,0,0,.52,0c.36-.1.93-.79,1.19-1l.7-.45a1.39,1.39,0,0,1,1.21.19C256.5,188.11,256.17,186.68,256.17,186.68Z" transform="translate(-22.73 -17.3)"/><path class="cls-30" d="M261.37,185s-2,.65-2.67.77-2.4-.09-3.34,0a9.47,9.47,0,0,0-2.42,1.74c-.76.86-1.44,1.65-1.24,1.77.43.27,1.5-1.09,2.38-1.72a1.36,1.36,0,0,1,1.54-.24c.3.21.17.52-.09.68s-.85.24-.89.4,0,.48.84.33a4.45,4.45,0,0,0,1.76-.73,2.2,2.2,0,0,1,1.2-.37c.63-.07,3.76-.63,3.76-.63" transform="translate(-22.73 -17.3)"/><path class="cls-33" d="M274.68,181.83l-.64,5.39-.07.54-.53,0-2.49.08c-6,.14-12.45.08-12.45.08l-.37-2.4a143.12,143.12,0,0,1,14.36-3.35C273.87,182,274.68,181.83,274.68,181.83Z" transform="translate(-22.73 -17.3)"/><rect class="cls-45" x="243.86" y="169.97" width="1.54" height="20.83" rx="0.63" transform="translate(-69.33 76.12) rotate(-19.78)"/><rect class="cls-45" x="224.59" y="172" width="22.38" height="1.59" rx="0.73"/><path class="cls-37" d="M274.68,181.83l-.64,5.39-.6.56-2.49.08a51.16,51.16,0,0,1,1.54-5.67C273.87,182,274.68,181.83,274.68,181.83Z" transform="translate(-22.73 -17.3)"/><path class="cls-33" d="M293.6,210.23c-2.74-1.12-6.83.12-14.55,2s-9.36.15-9.36.15c.28-.58.21-7.45,1.07-16,.17-1.82.41-3.73.69-5.67,1.15-7.87,3.23-16.23,7.1-22,1.91-2.86,7.36-4.25,7.36-4.25,3,3.64,5.9,8,5.89,14.49s-1.73,12.92-1.48,16.68S293.6,210.23,293.6,210.23Z" transform="translate(-22.73 -17.3)"/><path class="cls-37" d="M277.38,196.35a39.55,39.55,0,0,1-6.62.08c.17-1.82.41-3.73.69-5.67h.25a3.21,3.21,0,0,0,3-2.4c.51-1.93,1.38-5,2.68-9.07,2.32-7.25,4.74-7.54,4.74-7.54s3.55-1.82,3.7,2S281.92,195.8,277.38,196.35Z" transform="translate(-22.73 -17.3)"/><path class="cls-32" d="M287.69,220.64s2.63-.95,4.13-5.46l-1.62-2.86-3.46,1.6a26,26,0,0,0-.46,3.27C286.4,217.35,287.69,220.64,287.69,220.64Z" transform="translate(-22.73 -17.3)"/><path class="cls-30" d="M255.62,192l-.24-1.92a14.82,14.82,0,0,1-2.55.12c-.82-.1-1.79-.53-3-.76s-1.45.26-1.26.54,1.57.51,1.57.51.18.17-.55.17h-.75a3.08,3.08,0,0,1-.9-.41l-.42-.42c-.78-.83-1.27-1.09-1.19-.53A4.41,4.41,0,0,0,248.7,192a13.49,13.49,0,0,0,2.63.73,2.39,2.39,0,0,0,1,0,9.53,9.53,0,0,1,2.25-.27c.66,0,1.07,0,1.07,0C257.15,192.58,256.37,192.25,255.62,192Z" transform="translate(-22.73 -17.3)"/><path class="cls-33" d="M281.77,170.26s-2.42.28-4.74,7.54c-1.3,4-2.17,7.14-2.68,9.07a3.24,3.24,0,0,1-3,2.41l-17,.44-.11,3.38s6.63.72,11.23,1.37a49.38,49.38,0,0,0,11.54.4c4.53-.56,9-20.47,8.76-22.5C285.41,169.19,281.77,170.26,281.77,170.26Z" transform="translate(-22.73 -17.3)"/><path class="cls-46" d="M270.57,153.16s-.43.86.53,2.37c.09.14.46.33.51.5a5.67,5.67,0,0,1,0,1.8,16.1,16.1,0,0,0,3.42,6.68c1.65.73,4.85-.41,7.56-1.84.58,0,3.78-1.63,3.32-6.17a17,17,0,0,0-4.26-8.82c-.24-.09-7.26,1.2-7.54,1.26A54.61,54.61,0,0,0,270.57,153.16Z" transform="translate(-22.73 -17.3)"/><path class="cls-34" d="M280.68,154.89a2.76,2.76,0,0,1-1.94-2.82c-.08-2.42-.39-2.5-1.87-1.15s-11.45,6.62-12.31-4.55c1.11.35,3.92-.22,6.54-1.48,1.37-.66,7.27-5.87,11.17-1.1,1.91-.34,4.57,1.37,5.28,5.71s-.86,10.37-2.41,11c-1,.42-1.46-.6-1.83-2.65-.16-1.08,2.64-3.15-.3-5.84A1.88,1.88,0,0,0,280.68,154.89Z" transform="translate(-22.73 -17.3)"/><path class="cls-46" d="M285.14,160.52s-.27,3.13.89,4.11c-1.79,2.15-5.8,2.47-5.8,2.47s.92-1.46-1.13-5.28S285.14,160.52,285.14,160.52Z" transform="translate(-22.73 -17.3)"/><path class="cls-33" d="M279.68,167.52a17.64,17.64,0,0,1,0-2.24s3.87-1.33,5.73-1.68a3.17,3.17,0,0,1,1,1.51A30,30,0,0,1,279.68,167.52Z" transform="translate(-22.73 -17.3)"/><path class="cls-46" d="M271.73,157.17s-.65,2.88-.4,3.57,2,.25,2,.25Z" transform="translate(-22.73 -17.3)"/><rect class="cls-47" x="223.9" y="77.52" width="90.84" height="43.5" rx="2.79"/><path class="cls-22" d="M335.46,95.6v37.92a2.79,2.79,0,0,1-2.79,2.79H247.42a2.79,2.79,0,0,1-2.8-2.79V95.6a2.79,2.79,0,0,1,2.8-2.79h85.25A2.79,2.79,0,0,1,335.46,95.6Z" transform="translate(-22.73 -17.3)"/><path class="cls-48" d="M335.46,95.6v5.46H244.62V95.6a2.79,2.79,0,0,1,2.8-2.79h85.25A2.79,2.79,0,0,1,335.46,95.6Z" transform="translate(-22.73 -17.3)"/><path class="cls-49" d="M331.88,105.64v26.17H248v-8.36c3.39-4.64,8-7.72,18.59-1.47,10.16,6,10.13-13.33,21.75-12.33s14.7,18.33,23.71,5.08S331.88,105.64,331.88,105.64Z" transform="translate(-22.73 -17.3)"/><rect class="cls-49" x="225.32" y="88.18" width="16.52" height="1.13"/><rect class="cls-49" x="225.32" y="90.18" width="27.92" height="1.13"/><rect class="cls-49" x="225.32" y="92.18" width="20.96" height="1.13"/><rect class="cls-49" x="225.32" y="94.18" width="25.29" height="1.13"/><rect class="cls-49" x="225.32" y="96.18" width="16.52" height="1.13"/><path class="cls-47" d="M125.07,81.33a27,27,0,0,1-50.65,0Z" transform="translate(-22.73 -17.3)"/><path class="cls-3" d="M74.82,54.5a27,27,0,0,0-3.38,24.19L97,69.92Z" transform="translate(-22.73 -17.3)"/><path class="cls-3" d="M100.87,40.4v27l19.87,18.3A27,27,0,0,0,100.87,40.4Z" transform="translate(-22.73 -17.3)"/><path class="cls-33" d="M97,42.9A27,27,0,0,0,74.82,54.5L97,69.92Z" transform="translate(-22.73 -17.3)"/><path class="cls-50" d="M92,96.46a27,27,0,0,0,24.89-8.24L97,69.92Z" transform="translate(-22.73 -17.3)"/><path class="cls-51" d="M71.44,78.69A27,27,0,0,0,92,96.46l5-26.54Z" transform="translate(-22.73 -17.3)"/><path class="cls-47" d="M83.76,140.25h-36A1.79,1.79,0,0,0,46,142v11.37a1.8,1.8,0,0,0,1.79,1.8H77.61c.15,1.2,1,3.57,5.33,3.57,0,0-1.79-.33-2.16-3.57h3a1.8,1.8,0,0,0,1.79-1.8V142A1.79,1.79,0,0,0,83.76,140.25Z" transform="translate(-22.73 -17.3)"/><path class="cls-52" d="M83.09,139.35h-36a1.8,1.8,0,0,0-1.8,1.79v11.37a1.8,1.8,0,0,0,1.8,1.79H76.94c.15,1.21,1,3.58,5.33,3.58,0,0-1.78-.33-2.15-3.58h3a1.8,1.8,0,0,0,1.8-1.79V141.14A1.8,1.8,0,0,0,83.09,139.35Z" transform="translate(-22.73 -17.3)"/><rect class="cls-53" x="23.76" y="123.45" width="36.94" height="1.54" rx="0.55"/><rect class="cls-53" x="23.76" y="126.05" width="36.94" height="1.54" rx="0.55"/><rect class="cls-53" x="23.76" y="128.65" width="36.94" height="1.54" rx="0.55"/><rect class="cls-53" x="23.76" y="131.25" width="36.94" height="1.54" rx="0.55"/><rect class="cls-53" x="23.76" y="133.85" width="36.94" height="1.54" rx="0.55"/><path class="cls-47" d="M293.17,145.9h36a1.79,1.79,0,0,1,1.79,1.79v11.37a1.79,1.79,0,0,1-1.79,1.79H299.33c-.15,1.21-1,3.58-5.34,3.58,0,0,1.79-.33,2.16-3.58h-3a1.79,1.79,0,0,1-1.79-1.79V147.69A1.79,1.79,0,0,1,293.17,145.9Z" transform="translate(-22.73 -17.3)"/><path class="cls-52" d="M293.84,145h36a1.79,1.79,0,0,1,1.79,1.79v11.37a1.79,1.79,0,0,1-1.79,1.79H300c-.15,1.2-1,3.58-5.33,3.58,0,0,1.79-.33,2.16-3.58h-3a1.79,1.79,0,0,1-1.79-1.79V146.79A1.79,1.79,0,0,1,293.84,145Z" transform="translate(-22.73 -17.3)"/><rect class="cls-54" x="319.08" y="146.58" width="11.37" height="11.75" rx="0.84" transform="translate(626.81 287.62) rotate(180)"/><rect class="cls-54" x="293.6" y="146.58" width="23.93" height="1.48" rx="0.43" transform="translate(588.41 277.35) rotate(180)"/><rect class="cls-54" x="298.84" y="149.15" width="18.7" height="1.48" rx="0.38" transform="translate(593.64 282.49) rotate(180)"/><rect class="cls-54" x="293.6" y="151.72" width="23.93" height="1.48" rx="0.43" transform="translate(588.41 287.62) rotate(180)"/><rect class="cls-54" x="295.54" y="154.29" width="21.99" height="1.48" rx="0.42" transform="translate(590.35 292.76) rotate(180)"/><rect class="cls-54" x="308.38" y="156.86" width="9.16" height="1.48" rx="0.27" transform="translate(603.18 297.89) rotate(180)"/><path class="cls-33" d="M226.17,81.34H189.82a3.88,3.88,0,0,1,.36-1.27c.92-2.18,4.29-6.6,16.42-8.56l6-1.24S226.48,70.26,226.17,81.34Z" transform="translate(-22.73 -17.3)"/><path class="cls-37" d="M214.12,81.34h-24.3a3.88,3.88,0,0,1,.36-1.27,5.52,5.52,0,0,1,2.88,0l1.48.4h15.81C213.43,80.44,214.12,81.34,214.12,81.34Z" transform="translate(-22.73 -17.3)"/><path class="cls-30" d="M205.2,70.8a5.85,5.85,0,0,1,.84,2.06,2,2,0,0,0,2.08,1.56c5.31-.3,5-3.62,5-3.62-1.1-1.67-1.76-6.63-1.76-6.63" transform="translate(-22.73 -17.3)"/><path class="cls-34" d="M192.77,55.54s-.22,6.66,2.76,6.57,0-7.35,0-7.35Z" transform="translate(-22.73 -17.3)"/><path class="cls-30" d="M210.59,62.89a13.08,13.08,0,0,1,.06,2.53c0,.08,0,.18-.05.27a1.31,1.31,0,0,1-.06.27c-.72,2.86-4.33,6.89-6.87,7.21a6.49,6.49,0,0,1-1,0c-3.54-.16-5.6-3.06-6.8-6.14l-.12-.32a29.05,29.05,0,0,1-1.49-6.84c0-.24-.18-2.87.33-3.65s7.55-1.66,7.7-1.67,6.86.47,6.86.47A73,73,0,0,1,210.59,62.89Z" transform="translate(-22.73 -17.3)"/><path class="cls-34" d="M211.68,62.78a11.8,11.8,0,0,1-.09,2.48c0,.08,0,.18,0,.27-.46,2.86-4,7.29-7.88,7.64-.3,0-.6.07-.88.08-4.25.17-5.72-3-6.9-6.2l-.12-.32s1.48,2.36,2.22,2.43-.18-.85,1.82-1.63a9.86,9.86,0,0,1,4.11-.34c.83.11,2.32.53,2.85.61a.6.6,0,0,0,.31,0,9.7,9.7,0,0,0,2.67-4.58C209.85,62.6,211.12,62.69,211.68,62.78Z" transform="translate(-22.73 -17.3)"/><path class="cls-34" d="M191.39,53.48s.22,5.13,8.64,3.08c2.3-.56,4.34-1.09,5.49-.47,1.72,5.41,1.77,8,2.38,7.79s-1.3-4.76,1.33-4.27c2,.37-.09,5.33-.09,5.33s2.45.32,2.52-.82c0-.68.12-10.37-1.55-12.67a4.61,4.61,0,0,0-3.65-2.2s-2.11-1.77-7.07-.32-7.57-.38-7.56-.24A9.86,9.86,0,0,0,191.39,53.48Z" transform="translate(-22.73 -17.3)"/><path class="cls-47" d="M226.18,81.33s-.44,8.76-4,14.33v0a.58.58,0,0,0-.09.14.32.32,0,0,0-.1.13c-1.08,1.62-7.07,10.49-10.93,14-4.25,3.89-9.14,8.29-9.14,8.29l-.17-.16a12,12,0,0,0-1.4,1.51c-.34.59-.67,2.79-1.3,3-.08,0-.19,0-.29.07a2.15,2.15,0,0,1-.92.4,5.71,5.71,0,0,1-2-.2,4.05,4.05,0,0,1-.91.7,18.46,18.46,0,0,1-2.37,1.25c-.7.23-.82,0-.66-.43s1.48-1.19,2-1.57a7.64,7.64,0,0,0,1.59-2.1c.29-.65.29-1,0-1s-1.21.56-1.91.7-1.05,0-.7-.44a5.42,5.42,0,0,1,2.45-1.89,4.84,4.84,0,0,0,2.3-.93,7.34,7.34,0,0,0,1.3-1.56l-.29-.25s7.64-10.65,13.35-18.88l.38-.51a30.94,30.94,0,0,0,3.54-13.73,2,2,0,0,0-1-.93Z" transform="translate(-22.73 -17.3)"/><path class="cls-30" d="M198.86,114.46a13.22,13.22,0,0,1-2,2.74,4.8,4.8,0,0,1-2.29.93,5.51,5.51,0,0,0-2.47,1.89c-.33.41,0,.59.71.44s1.61-.7,1.9-.7.3.36,0,1a7.14,7.14,0,0,1-1.59,2.1c-.48.37-1.82,1.12-2,1.56s0,.67.66.44a18.11,18.11,0,0,0,2.38-1.26,3.82,3.82,0,0,0,.89-.69,5.81,5.81,0,0,0,2,.2,2.21,2.21,0,0,0,.92-.4c.1,0,.21,0,.29-.07.63-.26,1-2.45,1.3-3a28.35,28.35,0,0,1,2.76-2.8Z" transform="translate(-22.73 -17.3)"/><path class="cls-33" d="M221.35,95.67h0c3.61-5.57,4.83-14.33,4.83-14.33l-4.6-3.13-2.35,1.13c-1.47-.65-4-1.6-4-1.6l-1.1,3.6a2,2,0,0,1,1,.94A31,31,0,0,1,211.57,96c-.13.18-.26.33-.39.52-5.71,8.22-13.35,18.87-13.35,18.87l3.27,2.87s4.89-4.4,9.14-8.28c3.86-3.52,9.85-12.4,10.93-14l.09-.14Z" transform="translate(-22.73 -17.3)"/><path class="cls-47" d="M195.92,83.51l-.13,0,.27.32c.13.14.05.24.05.24a.57.57,0,0,1-.56.15.88.88,0,0,1-.42-.2.62.62,0,0,1-.52.12c-.21,0-.47-.24-.82-.58a.17.17,0,0,1,0,.17.66.66,0,0,1-.57.15,1.8,1.8,0,0,1-.87-.64c-.12-.12-.29-.32-.47-.53l-.45-.31a1.25,1.25,0,0,0-.68-.23h0c-1.72,0-2.49-.78-4.6-.78h9.57l-.06,0a3.75,3.75,0,0,1-.58.11l.05,0c.13.14.25.28.35.41.38.46.89,1.07,1,1.16s0,.25,0,.25A.6.6,0,0,1,195.92,83.51Z" transform="translate(-22.73 -17.3)"/><path class="cls-30" d="M195.51,83.51l-.13,0c.15.16.24.27.28.32s0,.24,0,.24c-.17.19-.33.17-.55.15a.84.84,0,0,1-.42-.2.64.64,0,0,1-.52.12,1.76,1.76,0,0,1-.82-.58.17.17,0,0,1,0,.17.66.66,0,0,1-.57.15,1.86,1.86,0,0,1-.88-.64c-.12-.12-.28-.32-.46-.53l-.45-.31a1.26,1.26,0,0,0-.69-.23h0c-1.72,0-2.49-.78-4.6-.78,0,0,4.93-2.37,7.91-.69a9.41,9.41,0,0,0,1.25.13c.87,0,.62.45.35.59a4.32,4.32,0,0,1-.58.11l0,0,.36.41c.38.46.89,1.07,1,1.16s0,.25,0,.25A.62.62,0,0,1,195.51,83.51Z" transform="translate(-22.73 -17.3)"/><path class="cls-55" d="M195.22,81.37a4.32,4.32,0,0,1-.58.11,8.37,8.37,0,0,0-1-.83,9.41,9.41,0,0,0,1.25.13C195.74,80.79,195.49,81.23,195.22,81.37Z" transform="translate(-22.73 -17.3)"/></g></g></svg>