<svg height="411" viewBox="0 0 1435 411" width="1435" xmlns="http://www.w3.org/2000/svg">
  <g fill="#fff" fill-rule="evenodd" transform="translate(0 9)">
    <path
      d="m224.759186 81.040293c0 5.1843712-4.248728 15.5531136-10.38578 28.278388-27.852772 59.855922-71.284213 141.863248-100.553228 187.108669-4.248728 6.126985-8.497456 9.42613-18.4111546 9.42613h-46.7360075c-9.4416177 0-13.6903456-2.356533-15.5786692-9.897436-15.1065883-55.142857-29.26901478-145.162393-33.04566185-207.3748474-.47208088-9.8974359 2.36040442-13.6678877 14.16242655-13.6678877h43.9035222c10.3857794 0 13.2182647 1.4139194 13.6903456 10.8400489 1.8883235 49.0158732 7.5532941 106.5152622 12.7461838 139.0354092h1.8883236c20.7715584-38.175824 48.1522504-98.031746 64.2030004-137.1501834 4.248728-10.3687423 7.553294-12.7252747 17.939073-12.7252747h45.319765c7.553294 0 10.857861 1.8852259 10.857861 6.1269841zm93.773622 27.807082-35.878147 183.338217c-1.416243 8.954823-5.664971 13.667888-17.939074 13.667888h-43.431441c-10.38578 0-13.690346-3.299145-13.690346-8.01221 0-3.770452 1.416243-9.897436 3.304566-18.852259l36.822309-190.4078144c1.888324-8.954823 6.137052-13.6678877 18.411155-13.6678877h43.431441c9.913699 0 13.218265 2.8278388 13.218265 8.4835165 0 3.7704518-.944162 8.954823-4.248728 25.4505496zm149.53162 167.785104-2.360405 11.782661c-2.832485 13.667888-6.137051 17.43834-17.939073 17.43834h-37.766471c-37.29439 0-54.761383-6.126984-62.786758-17.43834-4.248728-6.126984-6.609132-13.667887-6.609132-23.565323 0-8.954823.944162-18.852259 3.776647-33.46276l19.355316-97.560439 11.329942-57.9706961 8.969536-46.1880342c1.416243-8.954823 5.664971-13.6678877 18.411155-13.6678877h42.95936c12.274103 0 14.634508 4.7130647 13.218265 13.6678877l-8.969537 45.2454212h39.182714c7.081213 0 9.913698.942613 9.913698 6.1269841 0 1.8852259-.944162 7.0695971-2.832485 16.4957265l-4.248728 22.6227105c-2.360405 11.782662-5.664971 13.667888-14.162427 13.667888h-39.182713l-17.939074 92.376068c-.944161 4.713065-1.416242 8.01221-1.416242 10.840049 0 8.483517 5.66497 10.368742 19.355316 10.368742h21.715721c8.969536 0 11.329941 1.885226 11.329941 8.01221 0 3.299146-1.416243 10.840049-3.304566 21.208792zm148.954632-25.45055h2.832485c14.634508 0 35.878147-3.299145 50.040574-6.59829 2.360404-.471307 5.66497-1.41392 8.969537-1.41392 4.248728 0 6.609132 2.827839 7.081213 8.01221l1.888323 21.680098c.472081 5.655678.944162 11.311355.944162 14.139194 0 6.126984-4.248728 8.954823-14.634507 12.253968-16.994912 5.184371-47.208089 10.840049-75.532942 10.840049h-6.609132c-56.177625 0-88.279125-17.909646-88.279125-70.224664 0-16.02442 2.360404-34.405373 5.19289-49.48718l3.304566-16.495726c9.913698-49.015873 24.076125-71.638584 42.95936-84.8351649 16.05075-11.3113554 42.015199-18.3809524 77.893346-18.3809524h1.416243c28.324853 0 51.456816 5.6556776 65.619242 19.3235653 10.857861 10.368742 16.994912 24.979243 16.994912 46.659341 0 13.196581-2.832485 30.163614-7.081213 53.728937l-2.360404 12.725275c-1.888324 10.368742-6.137052 13.196581-16.05075 13.196581h-111.88317c-1.416243 6.598291-1.888323 12.253969-1.888323 16.495727 0 12.253968 8.025375 18.380952 39.182713 18.380952zm-28.324853-83.892552h51.456816c3.776647 0 5.19289-.942613 6.137052-4.713064l.944161-4.241759c1.416243-6.59829 1.888324-10.368742 1.888324-14.6105 0-13.196581-7.553294-20.266179-24.076125-20.266179h-.944162c-9.913698 0-16.994912 2.356533-22.187801 7.069598-6.137052 5.655677-8.969537 13.196581-11.802022 28.749694z"/>
    <path d="m268 43 8.231089-43h45.768911l-6.7153 43z" stroke="#fff" stroke-linecap="round" stroke-linejoin="round"
          stroke-width="18"/>
    <path
      d="m817.955043 93.2942613c17.939073-14.6105006 40.598956-22.6227106 74.588779-22.6227106h3.304567c42.015198 0 64.675081 17.4383394 64.675081 56.5567763 0 11.311356-2.832486 32.991453-11.802022 80.593407-7.081214 37.233211-14.634508 65.982906-35.406067 82.949939-18.883235 15.553113-39.654794 19.323565-69.39589 19.323565h-2.360404c-15.578669 0-35.878147-4.241758-46.263927-9.426129l-9.864971 49.79765c-1.573603 9.111925-22.990846 22.047914-64.251727 38.807966-10.857861 0-15.57867-2.827839-15.57867-8.954823 0-2.827839 0-5.184371 2.832486-19.794871l53.81722-273.8290603c1.888324-8.954823 5.664971-11.7826618 16.522831-11.7826618h22.659883c9.913698 0 13.218265 1.8852259 14.162426 8.954823l1.416243 9.4261294zm4.248728 68.8107447-9.441618 48.07326c-2.360404 11.311355-3.776647 19.323566-3.776647 24.03663 0 12.253968 7.553294 16.967033 24.076125 16.967033h2.360404c28.324853 0 32.573581-16.02442 40.126876-50.429792 4.720808-22.151404 8.025375-43.360196 8.025375-50.901099 0-13.667888-7.553295-19.794872-24.076125-19.794872h-3.304567c-19.827397 0-29.269014 7.069597-33.989823 32.04884zm278.357249 125.838828h-.94416c-10.38578 13.667888-30.21318 22.151404-65.14717 22.151404h-1.41624c-43.431439 0-66.091322-21.680098-66.091322-57.499389 0-21.680098 5.19289-49.015873 20.771559-65.5116 15.106593-16.02442 41.543123-24.507936 81.197913-24.507936h2.83248c12.27411 0 28.79694.942613 35.40607 1.885225 1.88832-7.069597 2.83249-13.196581 2.83249-16.02442v-.942613c0-12.253968-9.9137-17.909645-32.57358-17.909645h-1.41625c-11.80202 0-28.32485 2.356532-40.12687 5.184371-4.72081.942613-14.16243 3.299145-17.93908 3.299145-4.24872 0-6.60913-2.356532-7.08121-7.540903l-2.3604-24.036631c-.47208-6.126984-.94417-11.7826613-.94417-15.0818066 0-4.2417582 1.41625-6.5982906 7.08122-8.4835165 19.35531-6.1269841 55.23346-12.2539682 84.97456-12.2539682h1.41624c31.62942 0 52.87306 5.6556776 67.03548 16.02442 11.32995 8.4835165 17.93908 21.6800973 17.93908 43.3601953 0 8.954823-1.88833 28.278388-8.49746 61.741148l-20.29948 100.859585c-1.88832 9.426129-6.13705 13.196581-18.41115 13.196581h-24.54821c-9.91369 0-12.74618-1.885226-13.21826-9.42613zm-4.24873-61.741148 2.3604-13.196581c-6.60913-.942613-16.99491-1.413919-25.96444-1.413919h-5.19289c-22.65989 0-32.57358 9.426129-32.57358 26.864468 0 11.311356 6.13705 17.909646 23.13196 17.909646h2.3604c10.85786 0 19.35532-2.356532 25.02029-7.069597 5.66497-4.713064 8.02538-10.368742 10.85786-23.094017zm336.89528-137.1501829c-34.46191 85.7777779-81.19791 185.6947499-155.31461 302.1074479-4.72081 7.540904-8.49746 10.840049-14.63451 10.840049-3.77665 0-8.49746-1.885226-14.16243-4.241758l-25.02028-9.897436c-8.02538-3.299145-9.9137-6.598291-9.9137-10.368743 0-3.770451 1.88832-6.59829 4.24873-9.897435 12.74618-18.380953 28.79693-43.360196 37.29439-57.970696-12.74619-4.241759-20.77156-15.081807-24.54821-34.876679-8.02538-42.417583-16.05075-135.264958-19.35532-186.1660564-.47208-9.8974359 6.13705-13.6678877 16.99492-13.6678877h39.65479c10.38578 0 14.16243 1.8852259 14.16243 11.3113553.94416 55.6141638 3.77664 110.7570208 8.02537 157.4163618h2.36041c25.02028-50.429793 50.51265-108.871795 67.03548-156.0024424 3.30457-9.8974359 8.49746-12.7252747 17.93907-12.7252747h45.31977c10.85786 0 14.16243 4.2417583 9.9137 14.1391942z"/>
  </g>
</svg>
