<?xml version="1.0" encoding="UTF-8"?>
<svg width="1435px" height="411px" viewBox="0 0 1435 411" version="1.1" xmlns="http://www.w3.org/2000/svg" xmlns:xlink="http://www.w3.org/1999/xlink">
    <g id="Page-1" stroke="none" stroke-width="1" fill="none" fill-rule="evenodd">
        <g id="vitepay" transform="translate(0.000000, 9.000000)" fill="#FFFFFF">
            <path d="M224.759186,81.040293 C224.759186,86.2246642 220.510458,96.5934066 214.373406,109.318681 C186.520634,169.174603 143.089193,251.181929 113.820178,296.42735 C109.57145,302.554335 105.322722,305.85348 95.4090234,305.85348 L48.6730159,305.85348 C39.2313982,305.85348 34.9826703,303.496947 33.0943467,295.956044 C17.9877584,240.813187 3.82533192,150.793651 0.04868485,88.5811966 C-0.42339603,78.6837607 2.40908927,74.9133089 14.2111114,74.9133089 L58.1146336,74.9133089 C68.500413,74.9133089 71.3328983,76.3272283 71.8049792,85.7533578 C73.6933027,134.769231 79.3582733,192.26862 84.551163,224.788767 L86.4394866,224.788767 C107.211045,186.612943 134.591737,126.757021 150.642487,87.6385836 C154.891215,77.2698413 158.195781,74.9133089 168.58156,74.9133089 L213.901325,74.9133089 C221.454619,74.9133089 224.759186,76.7985348 224.759186,81.040293 L224.759186,81.040293 Z M318.532808,108.847375 L282.654661,292.185592 C281.238418,301.140415 276.98969,305.85348 264.715587,305.85348 L221.284146,305.85348 C210.898366,305.85348 207.5938,302.554335 207.5938,297.84127 C207.5938,294.070818 209.010043,287.943834 210.898366,278.989011 L247.720675,88.5811966 C249.608999,79.6263736 253.857727,74.9133089 266.13183,74.9133089 L309.563271,74.9133089 C319.47697,74.9133089 322.781536,77.7411477 322.781536,83.3968254 C322.781536,87.1672772 321.837374,92.3516484 318.532808,108.847375 L318.532808,108.847375 Z M468.064428,276.632479 L465.704023,288.41514 C462.871538,302.083028 459.566972,305.85348 447.76495,305.85348 L409.998479,305.85348 C372.704089,305.85348 355.237096,299.726496 347.211721,288.41514 C342.962993,282.288156 340.602589,274.747253 340.602589,264.849817 C340.602589,255.894994 341.546751,245.997558 344.379236,231.387057 L363.734552,133.826618 L375.064494,75.8559219 L384.03403,29.6678877 C385.450273,20.7130647 389.699001,16 402.445185,16 L445.404545,16 C457.678648,16 460.039053,20.7130647 458.62281,29.6678877 L449.653273,74.9133089 L488.835987,74.9133089 C495.9172,74.9133089 498.749685,75.8559219 498.749685,81.040293 C498.749685,82.9255189 497.805523,88.1098901 495.9172,97.5360195 L491.668472,120.15873 C489.308067,131.941392 486.003501,133.826618 477.506045,133.826618 L438.323332,133.826618 L420.384258,226.202686 C419.440097,230.915751 418.968016,234.214896 418.968016,237.042735 C418.968016,245.526252 424.632986,247.411477 438.323332,247.411477 L460.039053,247.411477 C469.008589,247.411477 471.368994,249.296703 471.368994,255.423687 C471.368994,258.722833 469.952751,266.263736 468.064428,276.632479 L468.064428,276.632479 Z M617.01906,251.181929 L619.851545,251.181929 C634.486053,251.181929 655.729692,247.882784 669.892119,244.583639 C672.252523,244.112332 675.557089,243.169719 678.861656,243.169719 C683.110384,243.169719 685.470788,245.997558 685.942869,251.181929 L687.831192,272.862027 C688.303273,278.517705 688.775354,284.173382 688.775354,287.001221 C688.775354,293.128205 684.526626,295.956044 674.140847,299.255189 C657.145935,304.43956 626.932758,310.095238 598.607905,310.095238 L591.998773,310.095238 C535.821148,310.095238 503.719648,292.185592 503.719648,239.870574 C503.719648,223.846154 506.080052,205.465201 508.912538,190.383394 L512.217104,173.887668 C522.130802,124.871795 536.293229,102.249084 555.176464,89.0525031 C571.227214,77.7411477 597.191663,70.6715507 633.06981,70.6715507 L634.486053,70.6715507 C662.810906,70.6715507 685.942869,76.3272283 700.105295,89.995116 C710.963156,100.363858 717.100207,114.974359 717.100207,136.654457 C717.100207,149.851038 714.267722,166.818071 710.018994,190.383394 L707.65859,203.108669 C705.770266,213.477411 701.521538,216.30525 691.60784,216.30525 L579.72467,216.30525 C578.308427,222.903541 577.836347,228.559219 577.836347,232.800977 C577.836347,245.054945 585.861722,251.181929 617.01906,251.181929 L617.01906,251.181929 Z M588.694207,167.289377 L640.151023,167.289377 C643.92767,167.289377 645.343913,166.346764 646.288075,162.576313 L647.232236,158.334554 C648.648479,151.736264 649.12056,147.965812 649.12056,143.724054 C649.12056,130.527473 641.567266,123.457875 625.044435,123.457875 L624.100273,123.457875 C614.186575,123.457875 607.105361,125.814408 601.912472,130.527473 C595.77542,136.18315 592.942935,143.724054 590.11045,159.277167 L588.694207,167.289377 Z" id="Shape"></path>
            <polygon id="Path" stroke="#FFFFFF" stroke-width="18" stroke-linecap="round" stroke-linejoin="round" points="268 43 276.231089 0 322 0 315.2847 43"></polygon>
            <path d="M817.955043,93.2942613 C835.894116,78.6837607 858.553999,70.6715507 892.543822,70.6715507 L895.848389,70.6715507 C937.863587,70.6715507 960.52347,88.1098901 960.52347,127.228327 C960.52347,138.539683 957.690984,160.21978 948.721448,207.821734 C941.640234,245.054945 934.08694,273.80464 913.315381,290.771673 C894.432146,306.324786 873.660587,310.095238 843.919491,310.095238 L841.559087,310.095238 C825.980418,310.095238 805.68094,305.85348 795.29516,300.669109 L785.430189,350.466759 C783.856586,359.578684 762.439343,372.514673 721.178462,389.274725 C710.320601,389.274725 705.599792,386.446886 705.599792,380.319902 C705.599792,377.492063 705.599792,375.135531 708.432278,360.525031 L762.249498,86.6959707 C764.137822,77.7411477 767.914469,74.9133089 778.772329,74.9133089 L801.432212,74.9133089 C811.34591,74.9133089 814.650477,76.7985348 815.594638,83.8681319 L817.010881,93.2942613 L817.955043,93.2942613 Z M822.203771,162.105006 L812.762153,210.178266 C810.401749,221.489621 808.985506,229.501832 808.985506,234.214896 C808.985506,246.468864 816.5388,251.181929 833.061631,251.181929 L835.422035,251.181929 C863.746888,251.181929 867.995616,235.157509 875.548911,200.752137 C880.269719,178.600733 883.574286,157.391941 883.574286,149.851038 C883.574286,136.18315 876.020991,130.056166 859.498161,130.056166 L856.193594,130.056166 C836.366197,130.056166 826.92458,137.125763 822.203771,162.105006 L822.203771,162.105006 Z M1100.56102,287.943834 L1099.61686,287.943834 C1089.23108,301.611722 1069.40368,310.095238 1034.46969,310.095238 L1033.05345,310.095238 C989.622011,310.095238 966.962128,288.41514 966.962128,252.595849 C966.962128,230.915751 972.155018,203.579976 987.733687,187.084249 C1002.84028,171.059829 1029.27681,162.576313 1068.9316,162.576313 L1071.76408,162.576313 C1084.03819,162.576313 1100.56102,163.518926 1107.17015,164.461538 C1109.05847,157.391941 1110.00264,151.264957 1110.00264,148.437118 L1110.00264,147.494505 C1110.00264,135.240537 1100.08894,129.58486 1077.42906,129.58486 L1076.01281,129.58486 C1064.21079,129.58486 1047.68796,131.941392 1035.88594,134.769231 C1031.16513,135.711844 1021.72351,138.068376 1017.94686,138.068376 C1013.69814,138.068376 1011.33773,135.711844 1010.86565,130.527473 L1008.50525,106.490842 C1008.03317,100.363858 1007.56108,94.7081807 1007.56108,91.4090354 C1007.56108,87.1672772 1008.97733,84.8107448 1014.6423,82.9255189 C1033.99761,76.7985348 1069.87576,70.6715507 1099.61686,70.6715507 L1101.0331,70.6715507 C1132.66252,70.6715507 1153.90616,76.3272283 1168.06858,86.6959707 C1179.39853,95.1794872 1186.00766,108.376068 1186.00766,130.056166 C1186.00766,139.010989 1184.11933,158.334554 1177.5102,191.797314 L1157.21072,292.656899 C1155.3224,302.083028 1151.07367,305.85348 1138.79957,305.85348 L1114.25136,305.85348 C1104.33767,305.85348 1101.50518,303.968254 1101.0331,296.42735 L1100.56102,287.943834 Z M1096.31229,226.202686 L1098.67269,213.006105 C1092.06356,212.063492 1081.67778,211.592186 1072.70825,211.592186 L1067.51536,211.592186 C1044.85547,211.592186 1034.94178,221.018315 1034.94178,238.456654 C1034.94178,249.76801 1041.07883,256.3663 1058.07374,256.3663 L1060.43414,256.3663 C1071.292,256.3663 1079.78946,254.009768 1085.45443,249.296703 C1091.1194,244.583639 1093.47981,238.927961 1096.31229,226.202686 Z M1433.20757,89.0525031 C1398.74566,174.830281 1352.00966,274.747253 1277.89296,391.159951 C1273.17215,398.700855 1269.3955,402 1263.25845,402 C1259.4818,402 1254.76099,400.114774 1249.09602,397.758242 L1224.07574,387.860806 C1216.05036,384.561661 1214.16204,381.262515 1214.16204,377.492063 C1214.16204,373.721612 1216.05036,370.893773 1218.41077,367.594628 C1231.15695,349.213675 1247.2077,324.234432 1255.70516,309.623932 C1242.95897,305.382173 1234.9336,294.542125 1231.15695,274.747253 C1223.13157,232.32967 1215.1062,139.482295 1211.80163,88.5811966 C1211.32955,78.6837607 1217.93868,74.9133089 1228.79655,74.9133089 L1268.45134,74.9133089 C1278.83712,74.9133089 1282.61377,76.7985348 1282.61377,86.2246642 C1283.55793,141.838828 1286.39041,196.981685 1290.63914,243.641026 L1292.99955,243.641026 C1318.01983,193.211233 1343.5122,134.769231 1360.03503,87.6385836 C1363.3396,77.7411477 1368.53249,74.9133089 1377.9741,74.9133089 L1423.29387,74.9133089 C1434.15173,74.9133089 1437.4563,79.1550672 1433.20757,89.0525031 L1433.20757,89.0525031 Z" id="Shape"></path>
        </g>
    </g>
</svg>
